<?xml version="1.0" encoding="UTF-8" standalone="no"?>
<!DOCTYPE svg PUBLIC "-//W3C//DTD SVG 1.1//EN" "http://www.w3.org/Graphics/SVG/1.1/DTD/svg11.dtd">
<svg width="100%" height="100%" viewBox="0 0 1920 1920" version="1.1" xmlns="http://www.w3.org/2000/svg" xmlns:xlink="http://www.w3.org/1999/xlink" xml:space="preserve" style="fill-rule:evenodd;clip-rule:evenodd;stroke-linejoin:round;stroke-miterlimit:1.41421;">
    <g transform="matrix(3.40476,0,0,3.40476,-2192.41,-104.275)">
        <g transform="matrix(1.07548,0,0,1.07548,-160.492,-260.454)">
            <path d="M884.763,728.604C870.261,728.604 858.488,716.831 858.488,702.329L858.488,390.217C858.488,375.716 870.261,363.943 884.763,363.942L1121.24,363.942L1121.24,515.007C1180.18,515.007 1228.04,562.862 1228.04,621.806C1228.04,680.749 1180.18,728.604 1121.24,728.604L884.763,728.604Z" style="fill:rgb(166,250,255);"/>
        </g>
        <g transform="matrix(1.07548,0,0,1.07548,-160.492,-260.454)">
            <path d="M1121.24,363.942L1121.24,515.007C1150.71,515.007 1177.41,526.971 1196.74,546.303L1014.44,728.604L884.763,728.604C870.261,728.604 858.488,716.831 858.488,702.329L858.488,582.426L1045.71,395.208C1066.55,374.364 1093.89,363.942 1121.24,363.942Z" style="fill:url(#_Linear1);"/>
        </g>
        <g transform="matrix(0.326849,-0.326849,0.326849,0.326849,558.793,358.723)">
            <path d="M1165.61,571.632C1165.61,434.461 1054.24,323.096 917.071,323.096C779.901,323.096 668.536,434.461 668.536,571.632L668.536,820.167L917.071,820.167C1054.24,820.167 1165.61,708.802 1165.61,571.632Z" style="fill:rgb(255,198,42);"/>
        </g>
        <g transform="matrix(2.56569,0,0,2.56569,-1205.35,-672.767)">
            <circle cx="877.239" cy="358.026" r="44.767" style="fill:rgb(255,198,42);"/>
        </g>
        <g transform="matrix(1.06346,0,0,1.06346,112.47,-134.928)">
            <circle cx="877.239" cy="358.026" r="44.767" style="fill:white;"/>
        </g>
    </g>
    <g transform="matrix(1.18316e-15,-19.3224,19.3224,1.18316e-15,-16493.4,11282.4)">
        <text x="496.82px" y="865.356px" style="font-family:'ArialRoundedMTBold', 'Arial Rounded MT Bold', sans-serif;font-size:12px;">T<tspan x="504.162px 511.41px " y="865.356px 865.356px ">he</tspan> Bode<tspan x="551.892px 559.094px " y="865.356px 865.356px ">ga</tspan></text>
    </g>
    <defs>
        <linearGradient id="_Linear1" x1="0" y1="0" x2="1" y2="0" gradientUnits="userSpaceOnUse" gradientTransform="matrix(262.751,-257.864,257.864,262.751,858.488,728.604)"><stop offset="0" style="stop-color:rgb(166,250,255);stop-opacity:1"/><stop offset="1" style="stop-color:rgb(75,220,228);stop-opacity:1"/></linearGradient>
    </defs>
</svg>
